<svg width="14" height="6" viewBox="0 0 14 6" fill="none" xmlns="http://www.w3.org/2000/svg">
<path d="M13.7282 3.67003L13.3884 3.33025C13.387 3.3289 13.3863 3.32688 13.3836 3.3262L13.1153 3.05653C13.0681 3.01001 13.0169 2.96956 12.963 2.9345C9.51588 -0.091885 4.27279 0.00115168 0.935605 3.21159C0.919425 3.22642 0.901222 3.23654 0.885042 3.25272L0.271539 3.86689C-0.0925177 4.23028 -0.0904951 4.82153 0.275584 5.18761C0.640989 5.55302 1.23224 5.55571 1.5963 5.19098L2.2098 4.57815C2.21385 4.57276 2.21722 4.56804 2.22126 4.56467C4.92 1.95762 9.20104 1.94144 11.9214 4.51141L12.4041 4.99479C12.7674 5.35818 13.36 5.35683 13.7255 4.99142C14.0902 4.62534 14.0915 4.03342 13.7282 3.67003Z" fill="white"/>
</svg>
