<svg width="14" height="10" viewBox="0 0 14 10" fill="none" xmlns="http://www.w3.org/2000/svg">
<path d="M1.77839 2.36518L5.01804 2.78166C5.1311 3.06873 5.70078 4.4818 5.80789 4.73466C5.80789 4.73466 5.80789 4.73466 5.80638 4.73466C4.86781 5.19874 3.92923 5.66133 2.99066 6.12541C3.31641 6.06592 3.64662 6.03617 3.97832 6.03617C4.41265 6.03617 4.83806 6.08823 5.24413 6.19086C6.06371 6.3991 6.80446 6.73227 7.51992 7.05506C8.15803 7.34213 8.76193 7.61435 9.36434 7.77053C9.44913 7.79284 9.53094 7.81218 9.61275 7.82853C8.89878 6.36638 6.97849 2.42616 6.59919 1.55899C6.4207 1.14994 6.17527 0.998225 5.82722 0.953602L2.02235 0.464236C1.49728 0.397302 1.01684 0.767673 0.948416 1.29274C0.882954 1.8178 1.25333 2.29824 1.77839 2.36518Z" fill="white"/>
<path d="M0.248022 9.19851C0.35363 9.27437 0.474113 9.31007 0.594596 9.31007C0.62137 9.31007 0.646656 9.30857 0.671943 9.30412C0.829611 9.2833 0.978356 9.2 1.07801 9.06167C1.46326 8.52469 2.05972 8.10227 2.75436 7.87021C3.15299 7.73784 3.56948 7.67091 3.97852 7.67091C5.4615 7.67091 6.73326 8.55742 8.07195 9.0676C8.78889 9.34129 9.53708 9.54358 10.3507 9.54358C10.6928 9.54358 11.0468 9.5079 11.4142 9.42609C12.2784 9.2357 13.0192 8.82516 13.5547 8.24951C13.6826 8.11118 13.7986 7.96541 13.9012 7.80923C14.0827 7.53554 14.0068 7.16665 13.7331 6.98518C13.632 6.91825 13.519 6.88701 13.4059 6.88701C13.2125 6.88701 13.0236 6.98072 12.9091 7.15327C12.863 7.22316 12.8124 7.2901 12.7574 7.35556C12.3855 7.79882 11.8277 8.11713 11.1584 8.26438C10.5411 8.39976 9.85985 8.35958 9.2515 8.20193C8.6119 8.03533 7.99311 7.75718 7.33566 7.46117C6.63656 7.14732 5.91516 6.82157 5.13278 6.62226C4.76092 6.52707 4.37121 6.48096 3.97704 6.48096C3.44007 6.48096 2.89418 6.5687 2.37506 6.74126C1.92139 6.89298 1.50045 7.10418 1.12264 7.37045C0.724003 7.65157 0.383379 7.98625 0.10969 8.36703C0.0918409 8.39232 0.0769665 8.41761 0.0635796 8.44438C-0.0658278 8.70171 0.00556939 9.02448 0.248022 9.19851Z" fill="white"/>
<path d="M11.0202 6.43782C12.1793 6.43782 13.1189 5.49816 13.1189 4.33903C13.1189 3.1799 12.1793 2.24023 11.0202 2.24023C9.86104 2.24023 8.92139 3.1799 8.92139 4.33903C8.92139 5.49816 9.86104 6.43782 11.0202 6.43782Z" fill="white"/>
</svg>
